<?xml version="1.0" encoding="UTF-8"?>
<svg width="414px" height="256px" viewBox="0 0 414 256" version="1.1" xmlns="http://www.w3.org/2000/svg" xmlns:xlink="http://www.w3.org/1999/xlink">
    <!-- Generator: Sketch 48.2 (47327) - http://www.bohemiancoding.com/sketch -->
    <title>Page 1</title>
    <desc>Created with Sketch.</desc>
    <defs></defs>
    <g id="Artboard-3" stroke="none" stroke-width="1" fill="none" fill-rule="evenodd" transform="translate(-871.000000, -909.000000)">
        <g id="Page-1" transform="translate(871.000000, 905.000000)">
            <polygon id="Fill-1" fill-opacity="0" fill="#FFFFFF" points="0 260 440 260 440 0 0 0"></polygon>
            <path d="M183.23788,89.4954046 L183.23788,198.386353 C183.23788,213.861472 142.890241,226.40659 93.1189005,226.40659 C43.3475603,226.40659 2.99992132,213.861472 2.99992132,198.386353 L2.99992132,89.4954046 L183.23788,89.4954046 Z" id="Stroke-3" stroke="#1696A3" stroke-width="5"></path>
            <path d="M183.23788,89.5156371 C183.23788,104.990803 142.890241,117.535874 93.1189005,117.535874 C43.3475603,117.535874 2.99992132,104.990803 2.99992132,89.5156371 C2.99992132,74.0404949 43.3475603,61.4954046 93.1189005,61.4954046 C142.890241,61.4954046 183.23788,74.0404949 183.23788,89.5156371 Z" id="Path" stroke="#1696A3" stroke-width="5" fill="#FFFFFF"></path>
            <path d="M307.9669,82.6772 L291.3893,69.6374 L297.9092,69.6374 C285.2089,46.608 240.8414,30.5178 190.0402,30.5177 L203.0802,30.5177 C253.8814,30.5177 298.2488,46.608 310.9491,69.6373 L317.4691,69.6374 L307.9669,82.6772 Z" id="Fill-4" fill="#1696A3"></path>
            <path d="M196.5602,30.6071 C137.6656,32.2236 91.67355,55.056 91.67355,82.6772 L78.6337,82.6772 C78.6337,53.8703 128.5121,30.5177 190.0403,30.5177 C192.215,30.5177 194.3893,30.5475 196.5602,30.6071 Z" id="Fill-5" fill="#127983"></path>
            <text id="Disrupted-Mental-Wellness-" font-family="Arial-BoldMT, Arial" font-size="18" font-weight="bold" letter-spacing="0.0036" fill="#404040">
                <tspan x="100.43119" y="16.589925">D</tspan>
                <tspan x="113.433813" y="16.589925" letter-spacing="-0.0036">i</tspan>
                <tspan x="118.43119" y="16.589925">sr</tspan>
                <tspan x="135.454015" y="16.589925" letter-spacing="-0.0036">up</tspan>
                <tspan x="157.437049" y="16.589925">t</tspan>
                <tspan x="163.43119" y="16.589925">e</tspan>
                <tspan x="173.445532" y="16.589925" letter-spacing="-0.0036">d </tspan>
                <tspan x="189.434426" y="16.589925">M</tspan>
                <tspan x="204.428567" y="16.589925">e</tspan>
                <tspan x="214.442909" y="16.589925" letter-spacing="-0.0036">n</tspan>
                <tspan x="225.434426" y="16.589925">t</tspan>
                <tspan x="231.428567" y="16.589925">a</tspan>
                <tspan x="241.442909" y="16.589925" letter-spacing="-0.0036">l </tspan>
                <tspan x="251.437662" y="16.589925" letter-spacing="-0.3276">W</tspan>
                <tspan x="267.774124" y="16.589925">e</tspan>
                <tspan x="277.788467" y="16.589925" letter-spacing="-0.0036">lln</tspan>
                <tspan x="298.774737" y="16.589925">ess</tspan>
                <tspan x="328.817763" y="16.589925"> </tspan>
            </text>
            <text id="Wellness-Concerns-" font-family="Arial-BoldMT, Arial" font-size="18" font-weight="bold" letter-spacing="-0.0182" fill="#404040">
                <tspan x="211.4294" y="96.230425">W</tspan>
                <tspan x="228.075263" y="96.230425" letter-spacing="0.3058">ellness Concerns</tspan>
                <tspan x="382.030563" y="96.230425"> </tspan>
            </text>
            <text id="•" font-family="ArialMT, Arial" font-size="18" font-weight="normal" fill="#225378">
                <tspan x="211.4294" y="117.230425">•</tspan>
            </text>
            <text id="-" font-family="Helvetica" font-size="18" font-weight="normal"></text>
            <text id="Frequent-dissatisfaction-" font-family="ArialMT, Arial" font-size="18" font-weight="normal" letter-spacing="-0.0036" fill="#404040">
                <tspan x="225.03571" y="117.230425">F</tspan>
                <tspan x="236.027227" y="117.230425">r</tspan>
                <tspan x="242.021368" y="117.230425" letter-spacing="0.0036">equen</tspan>
                <tspan x="292.093079" y="117.230425">t </tspan>
                <tspan x="302.087832" y="117.230425" letter-spacing="0.0036">di</tspan>
                <tspan x="316.104798" y="117.230425">ss</tspan>
                <tspan x="334.104798" y="117.230425" letter-spacing="0.0036">a</tspan>
                <tspan x="344.11914" y="117.230425">t</tspan>
                <tspan x="349.116516" y="117.230425" letter-spacing="0.0036">i</tspan>
                <tspan x="353.11914" y="117.230425">s</tspan>
                <tspan x="362.11914" y="117.230425">f</tspan>
                <tspan x="367.116516" y="117.230425" letter-spacing="0.0036">a</tspan>
                <tspan x="377.130858" y="117.230425">c</tspan>
                <tspan x="386.130858" y="117.230425">t</tspan>
                <tspan x="391.128235" y="117.230425" letter-spacing="0.0036">ion</tspan>
                <tspan x="415.159543" y="117.230425"> </tspan>
            </text>
            <text id="•" font-family="ArialMT, Arial" font-size="18" font-weight="normal" fill="#225378">
                <tspan x="211.4294" y="139.230425">•</tspan>
            </text>
            <text id="-" font-family="Helvetica" font-size="18" font-weight="normal"></text>
            <text id="Loss-of-motivation-" font-family="ArialMT, Arial" font-size="18" font-weight="normal" letter-spacing="0.0036" fill="#404040">
                <tspan x="225.03571" y="139.230425">Lo</tspan>
                <tspan x="245.064394" y="139.230425">ss</tspan>
                <tspan x="263.064394" y="139.230425" letter-spacing="-0.0036"> </tspan>
                <tspan x="268.061771" y="139.230425">o</tspan>
                <tspan x="278.076113" y="139.230425" letter-spacing="-0.0036">f </tspan>
                <tspan x="288.070866" y="139.230425">m</tspan>
                <tspan x="303.065007" y="139.230425">o</tspan>
                <tspan x="313.079349" y="139.230425" letter-spacing="-0.0036">t</tspan>
                <tspan x="318.076726" y="139.230425">i</tspan>
                <tspan x="322.079349" y="139.230425">v</tspan>
                <tspan x="331.079349" y="139.230425">a</tspan>
                <tspan x="341.093691" y="139.230425" letter-spacing="-0.0036">t</tspan>
                <tspan x="346.091068" y="139.230425">ion</tspan>
                <tspan x="370.122376" y="139.230425"> </tspan>
            </text>
            <text id="•" font-family="ArialMT, Arial" font-size="18" font-weight="normal" fill="#225378">
                <tspan x="211.4294" y="160.230425">•</tspan>
            </text>
            <text id="-" font-family="Helvetica" font-size="18" font-weight="normal"></text>
            <text id="Lack-of-self-care-" font-family="ArialMT, Arial" font-size="18" font-weight="normal" letter-spacing="0.0036" fill="#404040">
                <tspan x="225.03571" y="160.230425">La</tspan>
                <tspan x="245.064394" y="160.230425">ck</tspan>
                <tspan x="263.064394" y="160.230425" letter-spacing="-0.0036"> </tspan>
                <tspan x="268.061771" y="160.230425">o</tspan>
                <tspan x="278.076113" y="160.230425" letter-spacing="-0.0036">f </tspan>
                <tspan x="288.070866" y="160.230425">s</tspan>
                <tspan x="297.070866" y="160.230425">el</tspan>
                <tspan x="311.087832" y="160.230425" letter-spacing="-0.0036">f </tspan>
                <tspan x="321.082585" y="160.230425">c</tspan>
                <tspan x="330.082585" y="160.230425">a</tspan>
                <tspan x="340.096927" y="160.230425">r</tspan>
                <tspan x="346.091068" y="160.230425">e</tspan>
                <tspan x="356.10541" y="160.230425"> </tspan>
            </text>
            <text id="•" font-family="ArialMT, Arial" font-size="18" font-weight="normal" fill="#225378">
                <tspan x="211.4294" y="182.230465">•</tspan>
            </text>
            <text id="-" font-family="Helvetica" font-size="18" font-weight="normal"></text>
            <text id="Feeling-overwhelmed-" font-family="ArialMT, Arial" font-size="18" font-weight="normal" letter-spacing="-0.0036" fill="#404040">
                <tspan x="225.03571" y="182.230465">F</tspan>
                <tspan x="236.027227" y="182.230465" letter-spacing="0.0036">eeling</tspan>
                <tspan x="284.089843" y="182.230465"> </tspan>
                <tspan x="289.087219" y="182.230465" letter-spacing="0.0036">o</tspan>
                <tspan x="299.101562" y="182.230465">v</tspan>
                <tspan x="308.101562" y="182.230465" letter-spacing="0.0036">e</tspan>
                <tspan x="318.115904" y="182.230465">r</tspan>
                <tspan x="324.110044" y="182.230465" letter-spacing="0.0036">whel</tspan>
                <tspan x="361.143976" y="182.230465">m</tspan>
                <tspan x="376.138116" y="182.230465" letter-spacing="0.0036">ed</tspan>
                <tspan x="396.166801" y="182.230465"> </tspan>
            </text>
            <text id="•" font-family="ArialMT, Arial" font-size="18" font-weight="normal" fill="#225378">
                <tspan x="211.4294" y="203.230465">•</tspan>
            </text>
            <text id="-" font-family="Helvetica" font-size="18" font-weight="normal"></text>
            <text id="Feeling-hopeless-" font-family="ArialMT, Arial" font-size="18" font-weight="normal" letter-spacing="-0.0036" fill="#404040">
                <tspan x="225.03571" y="203.230465">F</tspan>
                <tspan x="236.027227" y="203.230465" letter-spacing="0.0036">eeling</tspan>
                <tspan x="284.089843" y="203.230465"> </tspan>
                <tspan x="289.087219" y="203.230465" letter-spacing="0.0036">hopele</tspan>
                <tspan x="343.161554" y="203.230465">ss </tspan>
            </text>
            <path d="M6.81811,243.85999 C6.81811,235.47414 13.61619,228.67606 22.00205,228.67606 C30.3879,228.67606 37.18599,235.47414 37.18599,243.85999 C37.18599,252.24585 30.3879,259.04393 22.00205,259.04393 C13.61619,259.04393 6.81811,252.24585 6.81811,243.85999 Z" id="Fill-6" fill="#1696A3"></path>
            <text id="Health-Imbalances-" font-family="Arial-BoldMT, Arial" font-size="18" font-weight="bold" letter-spacing="0.0036" fill="#404040">
                <tspan x="43.38071" y="246.845105">Hea</tspan>
                <tspan x="76.4120178" y="246.845105" letter-spacing="-0.0036">l</tspan>
                <tspan x="81.4093944" y="246.845105">t</tspan>
                <tspan x="87.403535" y="246.845105" letter-spacing="-0.0036">h I</tspan>
                <tspan x="108.389805" y="246.845105">m</tspan>
                <tspan x="124.398288" y="246.845105" letter-spacing="-0.0036">b</tspan>
                <tspan x="135.389805" y="246.845105">a</tspan>
                <tspan x="145.404147" y="246.845105" letter-spacing="-0.0036">l</tspan>
                <tspan x="150.401524" y="246.845105">a</tspan>
                <tspan x="160.415866" y="246.845105" letter-spacing="-0.0036">n</tspan>
                <tspan x="171.407383" y="246.845105">ces</tspan>
                <tspan x="201.45041" y="246.845105"> </tspan>
            </text>
            <text id="across-dimensions-" font-family="ArialMT, Arial" font-size="18" font-weight="normal" letter-spacing="0.0036" fill="#404040">
                <tspan x="206.44421" y="246.845105">a</tspan>
                <tspan x="216.458552" y="246.845105">cr</tspan>
                <tspan x="231.452693" y="246.845105">o</tspan>
                <tspan x="241.467035" y="246.845105">ss</tspan>
                <tspan x="259.467035" y="246.845105" letter-spacing="-0.0036"> </tspan>
                <tspan x="264.464412" y="246.845105">di</tspan>
                <tspan x="278.481377" y="246.845105">m</tspan>
                <tspan x="293.475518" y="246.845105">en</tspan>
                <tspan x="313.504202" y="246.845105">s</tspan>
                <tspan x="322.504202" y="246.845105">ion</tspan>
                <tspan x="346.53551" y="246.845105">s </tspan>
            </text>
            <path d="M62.83189,201.54748 C62.83189,193.16162 69.62997,186.36354 78.01583,186.36354 C86.40168,186.36354 93.19977,193.16162 93.19977,201.54748 C93.19977,209.93333 86.40168,216.73141 78.01583,216.73141 C69.62997,216.73141 62.83189,209.93333 62.83189,201.54748 Z" id="Fill-7" fill="#00B050"></path>
            <path d="M144.4069,134.1379 C144.4069,125.752 151.205,118.9539 159.5909,118.9539 C167.9767,118.9539 174.7748,125.752 174.7748,134.1379 C174.7748,142.5237 167.9767,149.3218 159.5909,149.3218 C151.205,149.3218 144.4069,142.5237 144.4069,134.1379 Z" id="Fill-8" fill="#00B050"></path>
            <path d="M104.5646,196.12292 C104.5646,187.73706 111.3627,180.93898 119.7486,180.93898 C128.1344,180.93898 134.9325,187.73706 134.9325,196.12292 C134.9325,204.50877 128.1344,211.30685 119.7486,211.30685 C111.3627,211.30685 104.5646,204.50877 104.5646,196.12292 Z" id="Fill-9" fill="#0070C0"></path>
            <path d="M112.0566,140.9649 C112.0566,132.579 118.8547,125.7809 127.2406,125.7809 C135.6264,125.7809 142.4245,132.579 142.4245,140.9649 C142.4245,149.3507 135.6264,156.1488 127.2406,156.1488 C118.8547,156.1488 112.0566,149.3507 112.0566,140.9649 Z" id="Fill-10" fill="#0070C0"></path>
            <path d="M136.1165,178.26842 C136.1165,169.88257 142.9145,163.08449 151.3004,163.08449 C159.6862,163.08449 166.4843,169.88257 166.4843,178.26842 C166.4843,186.65428 159.6862,193.45236 151.3004,193.45236 C142.9145,193.45236 136.1165,186.65428 136.1165,178.26842 Z" id="Fill-11" fill="#7030A0"></path>
            <path d="M58.35614,139.4199 C58.35614,131.0341 65.15422,124.236 73.54008,124.236 C81.92593,124.236 88.72401,131.0341 88.72401,139.4199 C88.72401,147.8058 81.92593,154.6039 73.54008,154.6039 C65.15422,154.6039 58.35614,147.8058 58.35614,139.4199 Z" id="Fill-12" fill="#7030A0"></path>
            <path d="M11.19496,134.7665 C11.19496,126.3807 17.99304,119.5826 26.3789,119.5826 C34.76476,119.5826 41.56284,126.3807 41.56284,134.7665 C41.56284,143.1524 34.76476,149.9505 26.3789,149.9505 C17.99304,149.9505 11.19496,143.1524 11.19496,134.7665 Z" id="Fill-13" fill="#817F22"></path>
            <path d="M80.88409,166.61323 C80.88409,158.2274 87.68217,151.4293 96.06803,151.4293 C104.4539,151.4293 111.252,158.2274 111.252,166.61323 C111.252,174.99908 104.4539,181.79716 96.06803,181.79716 C87.68217,181.79716 80.88409,174.99908 80.88409,166.61323 Z" id="Fill-14" fill="#817F22"></path>
            <path d="M37.01102,168.5252 C37.01102,160.13934 43.8091,153.3413 52.19496,153.3413 C60.58082,153.3413 67.3789,160.13934 67.3789,168.5252 C67.3789,176.91106 60.58082,183.70914 52.19496,183.70914 C43.8091,183.70914 37.01102,176.91106 37.01102,168.5252 Z" id="Fill-15" fill="#817F22"></path>
            <path d="M13.01283,195.48008 C13.01283,187.09422 19.81091,180.29614 28.19677,180.29614 C36.58263,180.29614 43.38071,187.09422 43.38071,195.48008 C43.38071,203.86594 36.58263,210.66402 28.19677,210.66402 C19.81091,210.66402 13.01283,203.86594 13.01283,195.48008 Z" id="Fill-16" fill="#7030A0"></path>
        </g>
    </g>
</svg>